<?xml version="1.0" encoding="utf-8"?>
<!-- Generator: Adobe Illustrator 27.5.0, SVG Export Plug-In . SVG Version: 6.00 Build 0)  -->
<svg version="1.1" xmlns="http://www.w3.org/2000/svg" xmlns:xlink="http://www.w3.org/1999/xlink" x="0px" y="0px"
	 viewBox="0 0 500 500" style="enable-background:new 0 0 500 500;" xml:space="preserve">
<g id="Mountains">
	<g id="Mountains_5_">
		<path style="fill:#EBEBEB;" d="M454.607,203.442l-41.409-66.893c-0.665-0.978-3.349-0.965-3.988,0.02l-18.554,25.316
			l-17.09-16.399c-1.626-1.562-5.222-1.562-6.848,0l-17.09,16.399l-43.512-48.867c-1.596-1.788-5.646-1.762-7.181,0.052
			l-35.462,41.245l-27.725-25.402c-1.454-1.607-4.989-1.768-6.797-0.31l-16.756,13.604l-37.24-41.213
			c-1.626-1.807-5.747-1.736-7.222,0.123l-47.938,60.264l-23.694-25.566c-1.828-1.973-6.358-1.85-7.919,0.214l-42.789,56.284
			v115.664h409.214L454.607,203.442z"/>
		<path style="fill:#FAFAFA;" d="M87.724,140.986c1.162-0.645,2.838-0.749,4.171-0.252l3.707,1.368
			c1.354,0.497,3.06,0.381,4.222-0.284l1.204-0.689l-4.926-5.316c-1.828-1.973-6.358-1.85-7.919,0.214l-5.634,7.449
			c0.57-0.08,1.119-0.246,1.59-0.509L87.724,140.986z"/>
		<path style="fill:#FAFAFA;" d="M413.198,136.549c-0.665-0.978-3.35-0.965-3.988,0.02l-4.482,6.116l-2.38,3.341l0.927,0.96
			c0.84,0.93,2.883,1.025,3.925,0.183l2.898-2.34c0.945-0.763,2.754-0.77,3.713-0.014l0.999,0.788
			c1.061,0.837,3.054,0.701,3.875-0.188L413.198,136.549z"/>
		<g>
			<path style="fill:#FAFAFA;" d="M228.955,128.604l-6.997,5.678l2.368,1.747c1.157,0.854,3.239,0.833,4.354-0.044l1.529-1.202
				c1.105-0.869,3.166-0.898,4.33-0.061l0,0c1.295,0.931,3.639,0.772,4.598-0.312l1.166-1.317l-4.561-4.178
				C234.289,127.307,230.753,127.145,228.955,128.604z"/>
			<path style="fill:#FAFAFA;" d="M298.931,113.069l-13.274,15.439l1.651,2.107c1.08,1.379,4.099,1.481,5.401,0.182l2.952-2.944
				c1.138-1.135,3.676-1.232,5.018-0.193l0,0c1.29,0.999,3.706,0.955,4.905-0.088l3.059-2.66c1.044-0.907,3.057-1.08,4.438-0.381
				l5.979,3.026l-12.945-14.536C304.522,111.229,300.467,111.257,298.931,113.069z"/>
			<path style="fill:#FAFAFA;" d="M366.721,145.487l-7.626,7.314l6.039-2.228c0.887-0.327,2.017-0.185,2.644,0.332l1.647,1.36
				c0.748,0.618,2.171,0.682,3.048,0.137l1.396-0.868c0.793-0.493,2.055-0.494,2.85-0.004l8.808,5.432v0l-11.965-11.476
				C371.935,143.927,368.348,143.927,366.721,145.487z"/>
			<path style="fill:#FAFAFA;" d="M167.733,101.116l-8.714,10.951l0.953,0.989c1.335,1.385,4.381,1.56,6.081,0.348l2.565-1.829
				c1.51-1.077,4.149-1.08,5.665-0.006l5.503,3.896c1.539,1.09,4.226,1.068,5.721-0.047l1.482-1.105l-12.035-13.319
				C173.324,99.189,169.211,99.259,167.733,101.116z"/>
		</g>
		<g style="opacity:0.05;">
			<polygon points="98.339,138.228 83.091,153.004 92.048,153.004 85.388,169.182 99.503,160.101 111.41,172.337 119.795,161.381 
							"/>
			<polygon points="175.479,101.574 185.594,131.801 169.326,143.857 167.119,179.105 212.194,142.208 			"/>
			<polygon points="237.016,130.082 230.867,140.83 239.071,140.83 224.332,164.864 247.288,152.939 257.76,161.346 
				263.473,154.315 			"/>
			<polygon points="349.629,161.885 308.718,115.941 317.024,137.803 303.044,150.808 337.539,157.479 326.445,165.495 
				332.272,170.123 323.292,187.492 			"/>
			<polygon points="373.561,145.487 366.534,159.038 376.006,158.206 377.33,176.054 390.655,161.882 			"/>
			<polygon points="417.434,143.392 437.674,185.467 421.839,207.827 439.416,204.749 454.607,307.976 454.607,307.976 
				454.607,203.441 			"/>
		</g>
	</g>
</g>
<g id="Pines">
	<g id="Pine_00000134935870962766804880000003174698161240715411_">
		<path style="fill:#E0E0E0;" d="M441.699,226.223c-8.781,6.487-49.014,5.586-58.082,0c-0.492-2.171-0.533-6.023-0.178-11.103
			l13.725,6.296l-13.124-13.001c0.778-7.306,2.062-16.17,3.701-25.77l5.012,2.69l-4.575-5.271
			c0.943-5.422,1.994-11.048,3.127-16.743l8.167,6.569l-7.293-10.925c0.232-1.188,0.478-2.376,0.724-3.55l11.171,9.218
			l-9.464-17.248c1.748-7.975,3.592-15.814,5.435-23.134l7.292,5.545c-0.177-0.314-3.086-5.271-6.009-10.434
			c2.404-9.136,4.821-17.235,7.074-23.476c0.724-1.98,2.485-2.977,4.247-2.977c1.775,0,3.537,0.997,4.261,2.977
			c2.144,5.941,4.438,13.547,6.733,22.151v0.014l-4.452,9.778l5.312-6.501c1.434,5.504,2.855,11.349,4.234,17.344l-9.546,21.031
			l11.28-13.343c0.177,0.82,0.369,1.653,0.533,2.486l-4.589,10.857l5.34-7.388c1.939,9.164,3.728,18.382,5.258,27.095
			l-13.234,15.951l14.326-9.56c0.328,2.007,0.642,3.988,0.942,5.913l-6.719,7.429l7.511-2.158
			C441.835,210.983,442.682,221.908,441.699,226.223z"/>
		<path style="opacity:0.15;" d="M441.699,226.223c-8.781,6.487-49.014,5.586-58.082,0c-0.492-2.171-0.533-6.023-0.178-11.103
			l13.725,6.296l-13.124-13.001c0.778-7.306,2.062-16.17,3.701-25.77l5.012,2.69l-4.575-5.271
			c0.943-5.422,1.994-11.048,3.127-16.743l8.167,6.569l-7.293-10.925c0.232-1.188,0.478-2.376,0.724-3.55l11.171,9.218
			l-9.464-17.248c1.748-7.975,3.592-15.814,5.435-23.134l7.292,5.545c-0.177-0.314-3.086-5.271-6.009-10.434
			c2.404-9.136,4.821-17.235,7.074-23.476c0.724-1.98,2.485-2.977,4.247-2.977c1.775,0,3.537,0.997,4.261,2.977
			c2.144,5.941,4.438,13.547,6.733,22.151v0.014l-4.452,9.778l5.312-6.501c1.434,5.504,2.855,11.349,4.234,17.344l-9.546,21.031
			l11.28-13.343c0.177,0.82,0.369,1.653,0.533,2.486l-4.589,10.857l5.34-7.388c1.939,9.164,3.728,18.382,5.258,27.095
			l-13.234,15.951l14.326-9.56c0.328,2.007,0.642,3.988,0.942,5.913l-6.719,7.429l7.511-2.158
			C441.835,210.983,442.682,221.908,441.699,226.223z"/>
		<path style="fill:#E0E0E0;" d="M414.786,188.868l12.25-23.063l-12.458,15.275l-1.921-71.557l-1.496,43.542l-8.724-12.6
			l8.453,20.464l-1.516,44.102l-16.621-15.323l16.401,21.739l-1.392,81.47c0,2.572,8.717,2.572,8.717,0L414.786,188.868
			L414.786,188.868z"/>
	</g>
	<g id="Pine_00000137094625192146058250000004572756282530559664_">
		<path style="fill:#E0E0E0;" d="M484.98,258.709c-9.184,5.659-49.986,6.556-58.891,0c-0.808-3.562-0.391-11.559,0.884-22.043
			l11.546,4.927l-10.649-11.824c1.023-7.188,2.337-15.209,3.866-23.584l7.074,3.095l-6.607-5.596
			c0.366-1.945,0.733-3.903,1.112-5.874l11.811,6.809l-10.611-12.859c1.314-6.518,2.716-13.074,4.181-19.479l6.091,3.274
			l-4.978-8.574c1.516-6.24,4.407-17.426,5.935-22.908l6.203,4.926l-5.243-8.312c1.541-5.343,3.07-10.131,4.522-14.161
			c0.733-2.008,2.514-3.019,4.307-3.019c1.794,0,3.588,1.011,4.308,3.019c2.223,6.139,4.598,14.06,6.96,22.978v0.013l-4.813,10.939
			l6.405-4.851c1.667,6.581,3.31,13.555,4.901,20.679v0.012l-8.072,20.363l9.676-12.948c0.568,2.716,1.137,5.445,1.693,8.16
			l-5.76,11.306l6.594-7.074c1.579,8.059,3.006,15.967,4.206,23.344v0.013l-13.175,20.691l14.262-13.63
			c0.341,2.223,0.644,4.383,0.922,6.455l-9.941,12.203l10.725-5.735C485.447,248.566,485.725,255.463,484.98,258.709z"/>
		<g>
			<path style="fill:#F0F0F0;" d="M472.074,209.445l-13.364,18.919l-1.403-40.826l7.211-24.408l-7.478,16.67l-1.504-43.744
				l-1.694,63.122l-7.504-8.964l7.282,17.247l-0.962,35.824l-15.518-15.432l15.236,25.924l-1.03,39.143c0,2.821,9.557,2.821,9.557,0
				l-1.775-52.367L472.074,209.445z"/>
		</g>
	</g>
	<g id="Pine_00000016055692627683359170000004705864325467607463_">
		<path style="fill:#E0E0E0;" d="M18.75,246.429c8.219,6.059,45.861,5.215,54.348,0c0.588-2.556,0.486-7.567-0.141-14.213
			l-9.778,3.541l9.088-9.778c-1.035-8.538-2.671-18.866-4.691-29.769l-5.522,2.301l4.806-6.097
			c-0.204-1.074-0.422-2.147-0.626-3.221l-13.14,6.685l11.363-15.479c-1.764-8.5-3.668-17.013-5.624-24.989l-8.538,7.132
			l7.388-11.683c-0.537-2.134-1.087-4.218-1.623-6.238l-7.554,4.103l6.186-9.075c-1.636-5.803-3.259-10.98-4.793-15.223
			c-0.664-1.853-2.326-2.786-3.975-2.786c-1.649,0-3.311,0.933-3.975,2.786c-2.3,6.365-4.78,14.801-7.247,24.298
			c2.147,4.985,3.847,8.883,3.847,8.883l-5.445-2.518c-0.601,2.416-1.189,4.895-1.777,7.401c2.582,7.912,5.803,17.831,5.803,18.035
			c-0.166-0.307-3.975-7.12-7.043-12.603C22.674,200.849,16.769,237.763,18.75,246.429z"/>
		<path style="fill:#F0F0F0;" d="M43.93,211.456l-11.465-21.585l11.66,14.296l1.798-66.973l1.401,40.753l8.165-11.793l-7.911,19.153
			l1.419,41.277l15.557-14.341l-15.35,20.347l1.303,50.962c0,2.408-8.159,2.408-8.159,0L43.93,211.456L43.93,211.456z"/>
	</g>
	<g id="Pine_00000152966141995237255340000004426806074698400414_">
		<path style="fill:#E0E0E0;" d="M63.281,226.825c8.65,5.309,46.991,6.159,55.358,0c0.343-1.521,0.462-3.907,0.343-6.979
			l-8.933,3.982l8.307-12.751c-0.522-5.279-1.357-11.483-2.416-18.254l-8.695,4.548l7.636-11.066
			c-0.179-1.074-0.373-2.162-0.567-3.266l-14.093,8.173l12.288-18.165c-1.893-10.022-4.086-20.446-6.383-30.363l-8.172,6.144
			l6.517-13.168c-0.313-1.268-0.626-2.506-0.925-3.743l-8.068,6.413l6.174-13.735c-2.252-8.545-4.518-16.136-6.636-21.997
			c-0.686-1.894-2.371-2.848-4.056-2.848c-1.685,0-3.37,0.954-4.056,2.848c-2.028,5.622-4.191,12.826-6.368,20.953l2.431,14.779
			l-4.653-6.174c-2.043,8.247-4.071,17.106-5.92,25.994l6.1,19.074l-7.859-10.424c-1.79,8.978-3.371,17.806-4.623,25.845l3.535,8.65
			l-4.43-2.685c-0.313,2.133-0.596,4.206-0.835,6.174l7.71,12.825l-8.396-6.786C62.804,218.354,62.639,224.036,63.281,226.825z"/>
		<path style="opacity:0.15;" d="M63.281,226.825c8.65,5.309,46.991,6.159,55.358,0c0.343-1.521,0.462-3.907,0.343-6.979
			l-8.933,3.982l8.307-12.751c-0.522-5.279-1.357-11.483-2.416-18.254l-8.695,4.548l7.636-11.066
			c-0.179-1.074-0.373-2.162-0.567-3.266l-14.093,8.173l12.288-18.165c-1.893-10.022-4.086-20.446-6.383-30.363l-8.172,6.144
			l6.517-13.168c-0.313-1.268-0.626-2.506-0.925-3.743l-8.068,6.413l6.174-13.735c-2.252-8.545-4.518-16.136-6.636-21.997
			c-0.686-1.894-2.371-2.848-4.056-2.848c-1.685,0-3.37,0.954-4.056,2.848c-2.028,5.622-4.191,12.826-6.368,20.953l2.431,14.779
			l-4.653-6.174c-2.043,8.247-4.071,17.106-5.92,25.994l6.1,19.074l-7.859-10.424c-1.79,8.978-3.371,17.806-4.623,25.845l3.535,8.65
			l-4.43-2.685c-0.313,2.133-0.596,4.206-0.835,6.174l7.71,12.825l-8.396-6.786C62.804,218.354,62.639,224.036,63.281,226.825z"/>
		<path style="fill:#E0E0E0;" d="M92.99,191.21l11.675-21.98l-11.874,14.558l-1.831-68.199l-1.426,41.499l-8.314-12.009
			l8.056,19.504l-1.445,42.033L71.99,192.011l15.631,20.72l-1.326,70.822c0,2.452,8.308,2.452,8.308,0L92.99,191.21L92.99,191.21z"
			/>
	</g>
</g>
<g id="Floor">
	<g id="Floor_00000089535056509216037930000008924230494492911495_">
		
			<ellipse id="Floor_00000005965810823362567290000001084401760360581031_" style="fill:#F0F0F0;" cx="249.531" cy="347.394" rx="235.006" ry="135.68"/>
		<path style="fill:#FAFAFA;" d="M309.544,478.591c38.892-5.907,75.675-17.655,106.163-35.256
			c39.242-22.656,61.689-51.332,67.372-80.879L223.447,212.557c-51.179,3.281-100.85,16.24-140.092,38.897
			c-30.486,17.601-50.833,38.837-61.065,61.291L309.544,478.591z"/>
	</g>
</g>
<g id="Clouds">
	<path id="Cloud_00000143610833548366834530000012241378294498766259_" style="fill:#EBEBEB;" d="M69.998,61.876
		c0.016-5.4,5.922-9.153,12.624-9.785c7.897-0.744,13.499,2.776,13.687,8.994c5.164-2.12,10.608-0.76,10.2,4.917
		c1.343-1.548,6.369-1.505,8.172-1.073c1.906,0.457,3.838,2.173,4.498,3.833c0.534,1.342,0.562,1.964,0.468,2.906
		c3.011-0.986,9.857-1.59,11.569,1.172c3.048,4.916-9.129,5.07-11.585,3.584c-0.52,3.825-13.606,4.452-16.774,0.923
		c-2.476,2.493-6.03,3.043-9.867,3.272c-6.474,0.385-10.444-1.808-15.495-4.387c-5.491,4.656-14.992,4.74-19.939-0.585
		c-1.263,1.191-4.739,1.56-7.525,0.895c-1.829-0.437-2.252-1.216-2.252-1.216c-0.979,0.453-2.147,0.755-3.359,1.009
		c-3.59,0.752-10.268-0.042-7.466-3.275c0.954-1.1,4.448-1.798,5.929-1.458c1.566-3.081,7.852-5.999,11.458-3.394
		c0.139-3.731,3.551-6.65,8.352-7.391C64.301,60.569,68.162,60.353,69.998,61.876z"/>
	<path id="Cloud_00000060004263861822217860000014859292175432755092_" style="fill:#EBEBEB;" d="M167.599,37.473
		c0.012-4.171,4.574-7.069,9.75-7.557c6.099-0.575,10.426,2.144,10.571,6.947c3.988-1.637,8.193-0.587,7.878,3.798
		c1.037-1.196,4.919-1.163,6.312-0.829c1.472,0.353,2.964,1.679,3.474,2.961c0.412,1.037,0.434,1.517,0.361,2.244
		c2.326-0.762,7.613-1.228,8.935,0.905c2.354,3.797-7.05,3.916-8.947,2.768c-0.402,2.954-10.508,3.439-12.955,0.713
		c-1.912,1.926-4.657,2.351-7.621,2.527c-5,0.298-8.067-1.396-11.967-3.389c-4.241,3.596-11.578,3.661-15.4-0.452
		c-0.975,0.92-3.66,1.205-5.812,0.691c-1.412-0.337-1.739-0.939-1.739-0.939c-0.757,0.35-1.658,0.583-2.594,0.78
		c-2.772,0.581-7.931-0.032-5.766-2.529c0.737-0.85,3.436-1.389,4.579-1.126c1.209-2.379,6.064-4.633,8.849-2.622
		c0.108-2.882,2.743-5.136,6.45-5.708C163.199,36.464,166.181,36.297,167.599,37.473z"/>
	<path id="Cloud_00000151510015211789254030000016400219070233112235_" style="fill:#EBEBEB;" d="M401.848,45.173
		c0.012-4.171,4.574-7.069,9.75-7.557c6.099-0.575,10.426,2.144,10.571,6.947c3.988-1.637,8.193-0.587,7.878,3.798
		c1.037-1.196,4.919-1.163,6.312-0.829c1.472,0.353,2.965,1.678,3.474,2.96c0.412,1.037,0.434,1.517,0.361,2.244
		c2.326-0.762,7.613-1.228,8.935,0.905c2.354,3.797-7.05,3.915-8.947,2.768c-0.401,2.954-10.508,3.439-12.955,0.713
		c-1.912,1.926-4.657,2.351-7.621,2.527c-5,0.298-8.067-1.396-11.967-3.389c-4.241,3.596-11.578,3.661-15.4-0.452
		c-0.975,0.92-3.66,1.205-5.812,0.691c-1.412-0.337-1.739-0.939-1.739-0.939c-0.757,0.35-1.658,0.583-2.594,0.78
		c-2.772,0.581-7.931-0.032-5.767-2.529c0.737-0.85,3.436-1.389,4.579-1.126c1.209-2.379,6.064-4.633,8.849-2.622
		c0.108-2.882,2.743-5.136,6.45-5.708C397.448,44.163,400.43,43.996,401.848,45.173z"/>
</g>
<g id="Sun">
	
		<ellipse id="Sun_00000116207167196904569870000000791620247829328792_" transform="matrix(0.7071 -0.7071 0.7071 0.7071 45.2508 249.9608)" style="fill:#FFBDA7;" cx="324.355" cy="70.358" rx="13.965" ry="13.965"/>
</g>
<g id="Shadow">
	<path id="Shadow_00000110443132793825950050000009715625403628174471_" style="fill:#E0E0E0;" d="M160.823,229.089L67.57,282.697
		c-13.157,7.565-11.591,20.754,3.499,29.458l220.894,127.597c75.473,43.689,201.446-47.044,141.113-80.872L205.151,226.86
		C190.061,218.155,173.982,221.523,160.823,229.089z"/>
</g>
<g id="Vehicle_00000135672871078041207670000014570953539289346973_">
	<g id="Vehicle">
		<g>
			<g>
				<path style="fill:#37474F;" d="M80.465,280.386l90.581-52.295l-0.008,0.003c3.323-17.711,2.385-42.316-1.261-66.263
					l-89.282,51.553L80.465,280.386z"/>
				<g>
					<polygon style="fill:#455A64;" points="180.978,343.946 277.705,289.555 171.038,228.095 80.465,280.386 					"/>
					<g>
						<path style="fill:#263238;" d="M159.222,245.907l85.939,49.609c2.227,1.286,5.923,1.237,8.254-0.109l6.465-3.732
							c2.331-1.346,2.415-3.48,0.188-4.766L174.13,237.3c-2.227-1.286-5.923-1.237-8.255,0.109l-6.465,3.733
							C157.079,242.487,156.995,244.621,159.222,245.907z"/>
						<path style="fill:#263238;" d="M138.148,258.074l85.939,49.609c2.227,1.286,5.923,1.237,8.254-0.109l6.465-3.732
							c2.331-1.346,2.416-3.48,0.188-4.766l-85.939-49.609c-2.227-1.286-5.923-1.237-8.255,0.109l-6.465,3.732
							C136.005,254.654,135.921,256.788,138.148,258.074z"/>
						<path style="fill:#263238;" d="M117.075,270.241l85.939,49.609c2.227,1.286,5.923,1.237,8.254-0.109l6.465-3.733
							c2.331-1.346,2.415-3.48,0.188-4.766l-85.939-49.609c-2.227-1.286-5.923-1.238-8.254,0.109l-6.465,3.733
							C114.932,266.821,114.847,268.955,117.075,270.241z"/>
						<path style="fill:#263238;" d="M96.001,282.408l85.939,49.609c2.228,1.286,5.923,1.237,8.254-0.109l6.465-3.733
							c2.331-1.346,2.416-3.48,0.188-4.766l-85.939-49.609c-2.227-1.286-5.923-1.237-8.254,0.109l-6.465,3.733
							C93.858,278.988,93.773,281.122,96.001,282.408z"/>
					</g>
				</g>
				<path style="fill:#263238;" d="M276.447,223.283l-106.669-61.451c3.645,23.947,4.583,48.552,1.261,66.263l106.667,61.46
					C281.028,271.844,280.092,247.23,276.447,223.283z"/>
			</g>
			<g>
				<path style="fill:#455A64;" d="M205.988,222.933c-2.905-1.678-5.665-2.472-8.145-2.472c-1.858,0-3.563,0.451-5.06,1.308
					l-10.941,6.332l4.591,9.138c0.145,4.835,1.353,9.949,3.338,14.793l24.382,14.072h0.009l11.384-6.576
					c0.009-0.217,0.009-0.433,0.009-0.65C225.553,245.267,216.795,229.175,205.988,222.933z"/>
				<path style="fill:#37474F;" d="M214.17,265.454c0,0.216,0,0.442-0.009,0.649h-0.009l-24.382-14.072l-14.73-8.506
					c-0.009-0.225-0.009-0.451-0.009-0.667c0-7.478,2.643-12.646,6.81-14.757c3.428-1.741,7.883-1.407,12.755,1.407
					c2.625,1.506,5.115,3.599,7.406,6.089c0.018,0.027,0.045,0.045,0.063,0.063C209.163,243.463,214.17,255.171,214.17,265.454z"/>
			</g>
			<g>
				<path style="fill:#263238;" d="M117.355,265.779c-0.011-0.011-0.011-0.011-0.011-0.011l-13.485-7.785l-14.237,8.248
					l-0.054,20.119h0v4.807l1.903-1.108l1.989-1.14l6.409-3.699l3-1.742l3.968-2.29l2.613-1.505l3.334-3.118l0.591-0.559
					l2.613-2.441l0.914-0.86l4.742-4.441L117.355,265.779z"/>
				<g id="XMLID_00000168119206309797081410000008449248618080505264_">
					<path id="XMLID_00000057854194380456993020000017058184436600503427_" style="fill:#37474F;" d="M102.812,286.516l-4.599-9.135
						l10.943-6.334l0.001,0.002c3.48-2.002,8.115-1.775,13.204,1.164c10.807,6.24,19.569,22.335,19.57,35.949
						c0.001,7.129-2.404,12.159-6.245,14.442l0.003,0.006l-0.154,0.089c-0.007,0.004-0.015,0.009-0.023,0.013l-11.218,6.477
						l-4.851-9.636C110.26,312.52,103.168,298.659,102.812,286.516z"/>
					<path id="XMLID_00000059292049708413551380000003798445645928115124_" style="fill:#263238;" d="M102.812,286.516l-4.599-9.135
						l10.943-6.334l0.001,0.002c3.48-2.002,8.115-1.775,13.204,1.164c10.807,6.24,19.569,22.335,19.57,35.949
						c0.001,7.129-2.404,12.159-6.245,14.442l0.003,0.006l-0.154,0.089c-0.007,0.004-0.015,0.009-0.023,0.013l-11.218,6.477
						l-4.851-9.636C110.26,312.52,103.168,298.659,102.812,286.516z"/>
					<path id="XMLID_00000090980821411329351530000009611518588138636688_" style="fill:#37474F;" d="M91.406,292.135
						c0,11.738,6.517,25.323,15.241,32.839c0.018,0.009,0.026,0.026,0.035,0.035c1.384,1.182,2.82,2.225,4.292,3.074
						c10.809,6.246,19.577,0.263,19.568-13.35c0-10.283-5.001-21.995-12.106-29.791c-0.017-0.018-0.044-0.035-0.061-0.061
						c-2.286-2.496-4.783-4.59-7.402-6.097C100.165,272.548,91.406,278.523,91.406,292.135z"/>
					<path id="XMLID_00000016754818817647503860000003785973140048491667_" style="fill:#455A64;" d="M91.406,292.135
						c0,11.738,6.517,25.323,15.241,32.839c-5.168-5.623-10.52-15.04-12.412-24.018c-1.656-7.848-1.034-19.113,5.702-21.96
						c6.683-2.829,15.627,3.153,18.439,5.886c-2.286-2.496-4.783-4.59-7.402-6.097C100.165,272.548,91.406,278.523,91.406,292.135z"
						/>
				</g>
				<g>
					<path style="fill:#F5F5F5;" d="M110.974,286.833c-6.878-3.971-12.454,0.244-12.454,9.415c0,9.17,5.576,19.824,12.454,23.795
						c6.878,3.971,12.453-0.244,12.453-9.415C123.428,301.457,117.852,290.804,110.974,286.833z M110.974,317.175
						c-5.691-3.285-10.304-12.099-10.304-19.686c0-7.587,4.613-11.074,10.304-7.789c5.69,3.285,10.303,12.099,10.303,19.686
						C121.277,316.973,116.665,320.461,110.974,317.175z"/>
					<path style="fill:#E0E0E0;" d="M121.28,309.388c0,2.884-0.673,5.184-1.817,6.732c-1.852,2.525-4.96,3.086-8.483,1.055
						c-5.7-3.288-10.312-12.096-10.312-19.681c0-5.307,2.255-8.606,5.554-8.988c1.425-0.168,3.041,0.202,4.758,1.189
						C116.668,292.983,121.28,301.803,121.28,309.388z"/>
					<path style="opacity:0.4;" d="M121.28,309.388c0,2.884-0.673,5.184-1.817,6.732c-1.852,2.525-4.96,3.086-8.483,1.055
						c-5.7-3.288-10.312-12.096-10.312-19.681c0-5.307,2.255-8.606,5.554-8.988c1.425-0.168,3.041,0.202,4.758,1.189
						C116.668,292.983,121.28,301.803,121.28,309.388z"/>
					<path style="fill:#263238;" d="M121.28,309.388c0,2.884-0.673,5.184-1.817,6.732c-1.425,0.18-3.052-0.202-4.769-1.189
						c-5.689-3.276-10.301-12.096-10.301-19.681c0-2.895,0.673-5.195,1.829-6.744c1.425-0.168,3.041,0.202,4.758,1.189
						C116.668,292.983,121.28,301.803,121.28,309.388z"/>
				</g>
				<g>
					<path style="fill:#E0E0E0;" d="M109.577,298.695l-1.858,5.403l-4.423-9.693c-0.019-0.86,0.479-2.483,0.939-3.291
						L109.577,298.695z"/>
					<path style="fill:#E0E0E0;" d="M107.74,302.959l3.333,4.703l-3.296,3.777c-0.857-0.827-1.433-1.416-1.865-2.551L107.74,302.959
						z"/>
					<path style="fill:#E0E0E0;" d="M114.776,306.783l-0.935,0.395l-0.235-1.077l-3.667,1.016l7.521,10.709
						c0.763-0.387,1.446-0.945,2.003-1.705c0.117-0.158,0.225-0.329,0.332-0.503L114.776,306.783z"/>
					<path style="fill:#E0E0E0;" d="M120.887,305.416l-6.111,1.367l0,0l-0.565-0.918l-0.606,0.236l-0.999-4.701l0.741,0.426
						l-0.049-1.218l6.175-0.038C120.102,302.151,120.585,303.789,120.887,305.416z"/>
					<path style="fill:#E0E0E0;" d="M113.299,300.607l-0.928-0.296l0.236,1.089l-4.006-2.323l3.523-8.64
						c1.043,0.763,2.053,1.705,2.985,2.794L113.299,300.607z"/>
					<path style="fill:#F5F5F5;" d="M114.872,305.688c0,2.87-1.745,4.189-3.898,2.947c-2.153-1.243-3.898-4.577-3.898-7.447
						c0-2.87,1.745-4.19,3.898-2.947C113.127,299.483,114.872,302.818,114.872,305.688z"/>
				</g>
			</g>
			<g>
				<g>
					<path style="fill:#BA68C8;" d="M180.978,343.946l-45.083-26.038l0.042-0.428c-0.151-7.119-3.011-17.28-6.904-23.894
						c-5.172-9.194-12.872-18.237-23.292-20.56h-0.011c-9.431-1.936-15.409,5.828-16.033,15.012
						c-0.075,0.667-0.108,1.871-0.129,3.118l-20.238-11.678c-3.28-17.7-2.344-42.228,1.301-66.089l111.604,64.285
						C178.591,301.621,177.655,326.236,180.978,343.946z"/>
					<path style="opacity:0.2;" d="M180.978,343.946l-45.083-26.038l0.042-0.428c-0.151-7.119-3.011-17.28-6.904-23.894
						c-5.172-9.194-12.872-18.237-23.292-20.56h-0.011c-9.431-1.936-15.409,5.828-16.033,15.012
						c-0.075,0.667-0.108,1.871-0.129,3.118l-20.238-11.678c-3.28-17.7-2.344-42.228,1.301-66.089l111.604,64.285
						C178.591,301.621,177.655,326.236,180.978,343.946z"/>
				</g>
				<g>
					<polygon style="fill:#BA68C8;" points="276.449,223.283 281.257,220.508 169.775,156.152 169.77,156.155 169.765,156.152 
						70.632,213.384 70.637,213.386 70.632,213.389 182.236,277.674 187.166,274.828 80.495,213.385 169.777,161.832 					"/>
					<polygon style="opacity:0.2;fill:#FFFFFF;" points="276.449,223.283 281.257,220.508 169.775,156.152 169.77,156.155 
						169.765,156.152 70.632,213.384 70.637,213.386 70.632,213.389 182.236,277.674 187.166,274.828 80.495,213.385 
						169.777,161.832 					"/>
				</g>
				<polygon style="fill:#455A64;" points="169.777,161.832 164.995,158.906 75.533,210.555 80.495,213.385 				"/>
			</g>
			<g>
				<path style="fill:#37474F;" d="M83.994,279.545v13.076l-17.781-10.228c-1.754-1.009-2.836-2.879-2.836-4.903v-10.634
					L83.994,279.545z"/>
				<path style="fill:#455A64;" d="M83.994,279.545c-6.905-4.007-19.43-11.13-19.43-11.13c-3.851-2.197,2.939-5.912,2.939-5.912
					l0.059,1.086c0.061,1.121,0.683,2.136,1.655,2.699l18.856,10.919L83.994,279.545z"/>
				<polygon style="fill:#263238;" points="88.073,277.207 88.073,290.268 83.994,292.621 83.994,279.545 				"/>
			</g>
			<g>
				<path style="fill:#BA68C8;" d="M67.39,248.533c3.232,2.156,6.396,3.939,8.489,5.06c1.535,0.822,2.486,2.419,2.486,4.16v6.432
					c0,0.655-0.7,1.07-1.272,0.751c-2.585-1.442-8.327-4.657-9.704-5.534C65.598,258.262,65.653,247.405,67.39,248.533z"/>
				<path style="opacity:0.8;fill:#FFFFFF;" d="M67.39,248.533c3.232,2.156,6.396,3.939,8.489,5.06
					c1.535,0.822,2.486,2.419,2.486,4.16v6.432c0,0.655-0.7,1.07-1.272,0.751c-2.585-1.442-8.327-4.657-9.704-5.534
					C65.598,258.262,65.653,247.405,67.39,248.533z"/>
			</g>
		</g>
		<g>
			<g>
				<path style="fill:#263238;" d="M298.311,373.637c-0.011-0.011-0.011-0.011-0.011-0.011l-13.485-7.785l-14.237,8.248
					l-0.054,20.119l0,0v4.807l1.903-1.108l1.989-1.14l6.409-3.699l3-1.742l3.968-2.29l2.613-1.505l3.334-3.118l0.592-0.559
					l2.613-2.441l0.914-0.86l4.742-4.441L298.311,373.637z"/>
				<g id="XMLID_1068_">
					<path id="XMLID_1075_" style="fill:#37474F;" d="M283.774,390.856l-4.599-9.135l10.943-6.334l0.001,0.002
						c3.48-2.002,8.115-1.775,13.204,1.164c10.807,6.24,19.568,22.335,19.57,35.949c0.001,7.129-2.404,12.159-6.245,14.442
						l0.003,0.006l-0.154,0.089c-0.007,0.004-0.015,0.009-0.023,0.013l-11.218,6.477l-4.851-9.636
						C291.223,416.86,284.13,403,283.774,390.856z"/>
					<path id="XMLID_1074_" style="fill:#263238;" d="M283.774,390.856l-4.599-9.135l10.943-6.334l0.001,0.002
						c3.48-2.002,8.115-1.775,13.204,1.164c10.807,6.24,19.568,22.335,19.57,35.949c0.001,7.129-2.404,12.159-6.245,14.442
						l0.003,0.006l-0.154,0.089c-0.007,0.004-0.015,0.009-0.023,0.013l-11.218,6.477l-4.851-9.636
						C291.223,416.86,284.13,403,283.774,390.856z"/>
					<path id="XMLID_1073_" style="fill:#37474F;" d="M272.368,396.475c0,11.738,6.517,25.323,15.241,32.839
						c0.018,0.009,0.026,0.026,0.035,0.035c1.384,1.182,2.82,2.225,4.292,3.074c10.809,6.246,19.577,0.263,19.568-13.35
						c0-10.283-5.001-21.995-12.106-29.791c-0.017-0.018-0.044-0.035-0.061-0.061c-2.286-2.496-4.783-4.59-7.402-6.097
						C281.127,376.889,272.368,382.863,272.368,396.475z"/>
					<path id="XMLID_1069_" style="fill:#455A64;" d="M272.368,396.475c0,11.738,6.517,25.323,15.241,32.839
						c-5.168-5.623-10.52-15.04-12.412-24.018c-1.656-7.848-1.034-19.113,5.702-21.96c6.684-2.829,15.627,3.153,18.439,5.886
						c-2.286-2.496-4.783-4.59-7.402-6.097C281.127,376.889,272.368,382.863,272.368,396.475z"/>
				</g>
				<g>
					<path style="fill:#F5F5F5;" d="M291.937,391.173c-6.878-3.971-12.454,0.244-12.454,9.415c0,9.17,5.576,19.824,12.454,23.795
						c6.878,3.971,12.453-0.244,12.453-9.415C304.39,405.797,298.815,395.144,291.937,391.173z M291.937,421.515
						c-5.69-3.285-10.304-12.099-10.304-19.686c0-7.587,4.613-11.074,10.304-7.789c5.69,3.285,10.303,12.099,10.303,19.686
						C302.24,421.313,297.627,424.801,291.937,421.515z"/>
					<path style="fill:#E0E0E0;" d="M302.242,413.729c0,2.883-0.673,5.184-1.818,6.732c-1.852,2.525-4.96,3.086-8.483,1.055
						c-5.7-3.288-10.312-12.096-10.312-19.681c0-5.307,2.255-8.606,5.554-8.988c1.425-0.168,3.041,0.202,4.758,1.189
						C297.631,397.324,302.242,406.143,302.242,413.729z"/>
					<path style="opacity:0.4;" d="M302.242,413.729c0,2.883-0.673,5.184-1.818,6.732c-1.852,2.525-4.96,3.086-8.483,1.055
						c-5.7-3.288-10.312-12.096-10.312-19.681c0-5.307,2.255-8.606,5.554-8.988c1.425-0.168,3.041,0.202,4.758,1.189
						C297.631,397.324,302.242,406.143,302.242,413.729z"/>
					<path style="fill:#263238;" d="M302.242,413.729c0,2.883-0.673,5.184-1.818,6.732c-1.425,0.18-3.052-0.202-4.769-1.189
						c-5.689-3.276-10.301-12.096-10.301-19.681c0-2.895,0.673-5.195,1.829-6.744c1.425-0.168,3.041,0.202,4.758,1.189
						C297.631,397.324,302.242,406.143,302.242,413.729z"/>
				</g>
				<g>
					<path style="fill:#E0E0E0;" d="M290.54,403.035l-1.858,5.403l-4.423-9.693c-0.019-0.86,0.479-2.483,0.939-3.291L290.54,403.035
						z"/>
					<path style="fill:#E0E0E0;" d="M288.703,407.299l3.333,4.703l-3.296,3.777c-0.857-0.827-1.433-1.416-1.865-2.551
						L288.703,407.299z"/>
					<path style="fill:#E0E0E0;" d="M295.739,411.124l-0.935,0.395l-0.236-1.077l-3.667,1.016l7.521,10.709
						c0.763-0.387,1.446-0.945,2.003-1.705c0.117-0.158,0.225-0.329,0.332-0.503L295.739,411.124z"/>
					<path style="fill:#E0E0E0;" d="M301.85,409.756l-6.111,1.367l0,0l-0.565-0.918l-0.606,0.236l-0.999-4.701l0.741,0.426
						l-0.049-1.218l6.175-0.038C301.064,406.491,301.547,408.129,301.85,409.756z"/>
					<path style="fill:#E0E0E0;" d="M294.261,404.947l-0.928-0.296l0.236,1.089l-4.006-2.323l3.523-8.64
						c1.043,0.763,2.053,1.705,2.985,2.794L294.261,404.947z"/>
					<path style="fill:#F5F5F5;" d="M295.834,410.028c0,2.87-1.745,4.19-3.898,2.947c-2.153-1.243-3.898-4.577-3.898-7.447
						c0-2.87,1.745-4.19,3.898-2.947C294.09,403.824,295.834,407.158,295.834,410.028z"/>
				</g>
			</g>
			<g>
				<path style="fill:#BA68C8;" d="M429.307,335.342c-1.961,3.937-4.907,7.602-8.076,10.753c-4.602,4.581-10.968,9.42-19.657,14.442
					c-50.228,28.98-73.057,15.807-115.812-8.893c-8.42-4.861-17.668-10.56-27.077-16.571c-0.269-0.172-0.527-0.333-0.785-0.495
					c-0.463-0.301-0.925-0.591-1.387-0.903c-0.721-0.462-1.452-0.925-2.183-1.398c-0.699-0.452-1.409-0.903-2.108-1.366
					c-4.742-3.075-9.495-6.205-14.162-9.312c-0.408-0.28-0.817-0.548-1.226-0.817c-0.527-0.355-1.043-0.699-1.57-1.043
					c-27.69-18.528-38.996-28.474-42.652-31.108l-0.075-0.054c-0.086-0.064-0.161-0.118-0.215-0.161l14.979,9.334l8.409,5.237
					l24.769,16.043c0,0,0.011,0,0.022,0l15.119,9.43l-0.914-3.333l-0.337-41.485c-0.968-3.312-2.226-5.409-3.785-7
					c-0.107-0.118-0.204-0.226-0.312-0.312c-1.71-1.624-3.753-2.71-6.151-4.086c-7.205-4.129-30.539-17.151-52.013-29.356
					c-0.721-0.409-1.43-0.817-2.14-1.215l69.456-46.684c4.361-2.931,9.992-3.176,14.59-0.631
					c25.723,14.238,59.49,32.571,64.971,37.309c0.624,0.559,11.578,15.208,20.029,23.896c9.275,9.535,18.954,19.848,20.065,21.402
					c6.957,4.645,32.249,21.108,45.841,31.561c0.441,0.333,0.897,0.802,1.552,1.397c0.261,0.237,1.284,1.142,2.3,2.897
					C432.902,319.956,433.721,326.51,429.307,335.342z"/>
				<path style="opacity:0.2;fill:#FFFFFF;" d="M429.307,335.342c-1.961,3.937-4.907,7.602-8.076,10.753
					c-4.602,4.581-10.968,9.42-19.657,14.442c-50.228,28.98-73.057,15.807-115.812-8.893c-8.42-4.861-17.668-10.56-27.077-16.571
					c-0.269-0.172-0.527-0.333-0.785-0.495c-0.463-0.301-0.925-0.591-1.387-0.903c-0.721-0.462-1.452-0.925-2.183-1.398
					c-0.699-0.452-1.409-0.903-2.108-1.366c-4.742-3.075-9.495-6.205-14.162-9.312c-0.408-0.28-0.817-0.548-1.226-0.817
					c-0.527-0.355-1.043-0.699-1.57-1.043c-27.69-18.528-38.996-28.474-42.652-31.108l-0.075-0.054
					c-0.086-0.064-0.161-0.118-0.215-0.161l14.979,9.334l8.409,5.237l24.769,16.043c0,0,0.011,0,0.022,0l15.119,9.43l-0.914-3.333
					l-0.337-41.485c-0.968-3.312-2.226-5.409-3.785-7c-0.107-0.118-0.204-0.226-0.312-0.312c-1.71-1.624-3.753-2.71-6.151-4.086
					c-7.205-4.129-30.539-17.151-52.013-29.356c-0.721-0.409-1.43-0.817-2.14-1.215l69.456-46.684
					c4.361-2.931,9.992-3.176,14.59-0.631c25.723,14.238,59.49,32.571,64.971,37.309c0.624,0.559,11.578,15.208,20.029,23.896
					c9.275,9.535,18.954,19.848,20.065,21.402c6.957,4.645,32.249,21.108,45.841,31.561c0.441,0.333,0.897,0.802,1.552,1.397
					c0.261,0.237,1.284,1.142,2.3,2.897C432.902,319.956,433.721,326.51,429.307,335.342z"/>
				<path style="opacity:0.2;fill:#FFFFFF;" d="M410.424,336.429c-1.85-2.14-3.688-4.28-5.635-6.344
					c-3.828-4.161-4.538-4.635-8.721-8.452c-4.247-3.742-8.624-7.345-13.173-10.71c-2.28-1.678-4.591-3.301-6.936-4.882
					c-2.376-1.527-4.753-3.065-7.237-4.419c4.667,3.183,9.183,6.559,13.592,10.054c4.419,3.506,8.775,7.076,12.936,10.882
					c4.226,3.71,4.893,4.183,8.85,8.183c4.011,3.968,7.785,8.162,11.592,12.334C413.962,340.837,412.252,338.59,410.424,336.429z
					 M375.272,360.258c-1-1.043-1.99-2.118-3.054-3.097c-2.108-2-4.215-4-6.452-5.85c-4.387-3.817-5.495-4.516-10.291-7.785
					c-4.849-3.204-9.882-6.151-15.065-8.764c-2.592-1.312-5.226-2.527-7.893-3.688c-2.688-1.086-5.377-2.183-8.162-3.022
					c5.355,2.215,10.549,4.785,15.614,7.549c5.065,2.774,10.054,5.689,14.818,8.958c4.828,3.161,5.893,3.839,10.377,7.473
					c4.559,3.559,8.807,7.474,13.087,11.398L375.272,360.258z"/>
				<path style="fill:#BA68C8;" d="M441.411,369.238c0,1.86-0.194,3.667-0.549,5.42c-3.258,15.829-19.657,27.184-33.614,35.163
					c-6.441,3.645-13.237,7.549-19.84,11.302c-4.753,2.645-9.484,5.71-14.549,7.732c-16.679,6.936-36.378,5.054-51.637-4.538
					c-0.022-0.021-0.054-0.032-0.086-0.054c-1.247-0.71-3.602-2.075-4.237-2.441c-0.151-7.119-3.011-17.28-6.904-23.894
					c-5.172-9.194-12.872-18.237-23.292-20.56h-0.011c-9.431-1.935-15.409,5.828-16.033,15.012c-0.075,0.688-0.117,1.969-0.128,3.27
					l-89.554-51.703c-5.065-26.991-0.226-70.036,8.99-102.274c-0.075-0.043-0.14-0.086-0.215-0.129
					c0.064,0.043,0.14,0.075,0.204,0.108c20.001,11.742,37.464,20.99,50.443,28.474c3.753,2.172,7.904,4.183,9.872,6.205
					c1.968,2.022,2.419,2.968,3.107,4.527v0.011c0.183,0.419,0.581,1.355,0.989,2.774c2.71,9.441,0.215,41.54,1.247,44.819
					l-15.108-9.42c-0.011-0.011-0.021-0.011-0.032-0.011c-15.366-9.592-33.12-21.259-48.153-30.615
					c0.054,0.043,0.129,0.097,0.215,0.161c2.581,2.065,38.099,28.636,59.68,42.336c0.011,0,0.011,0,0.011,0c0.011,0,0.011,0,0.011,0
					c1.419,0.936,2.85,1.86,4.269,2.764c9.882,6.355,20.238,12.764,29.249,17.969c42.755,24.7,65.584,37.873,115.812,8.893
					c9.807-5.774,15.807-10.28,21.366-16.216c1.333-1.452,2.635-3.032,3.731-4.602c0.14-0.183,0.269-0.366,0.387-0.559
					c5.334-7.646,6.56-16.657,2.559-24.238c-0.118-0.258-0.258-0.505-0.398-0.753c-0.236-0.452-0.495-0.882-0.753-1.28
					c0,0,0,0-0.011-0.011c-0.151-0.258-0.312-0.495-0.473-0.72c-0.01-0.011-0.01-0.022-0.022-0.032
					c-0.763-1.194-2.591-3.247-3.043-3.602c1.011,0.742,2.022,1.548,2.979,2.301c0.817,0.656,1.635,1.333,2.366,1.979
					c0.269,0.236,0.516,0.462,0.742,0.677l0.505,0.505c0.065,0.054,0.118,0.118,0.172,0.172c1.333,1.409,2.505,2.903,3.527,4.473
					c0.107,0.172,0.204,0.333,0.301,0.495c0.075,0.097,0.129,0.194,0.194,0.29c3.548,5.785,5.247,12.592,5.613,20.227v0.011
					C441.475,340.752,441.432,367.388,441.411,369.238z"/>
				<path style="opacity:0.05;" d="M441.411,369.238c0,1.86-0.194,3.667-0.549,5.42c-3.258,15.829-19.657,27.184-33.614,35.163
					c-6.441,3.645-13.237,7.549-19.84,11.302c-4.753,2.645-9.484,5.71-14.549,7.732c-16.679,6.936-36.378,5.054-51.637-4.538
					c-0.022-0.021-0.054-0.032-0.086-0.054c-1.247-0.71-3.602-2.075-4.237-2.441c-0.151-7.119-3.011-17.28-6.904-23.894
					c-5.172-9.194-12.872-18.237-23.292-20.56h-0.011c-9.431-1.935-15.409,5.828-16.033,15.012c-0.075,0.688-0.117,1.969-0.128,3.27
					l-89.554-51.703c-5.065-26.991-0.226-70.036,8.99-102.274c-0.075-0.043-0.14-0.086-0.215-0.129
					c0.064,0.043,0.14,0.075,0.204,0.108c20.001,11.742,37.464,20.99,50.443,28.474c3.753,2.172,7.904,4.183,9.872,6.205
					c1.968,2.022,2.419,2.968,3.107,4.527v0.011c0.183,0.419,0.581,1.355,0.989,2.774c2.71,9.441,0.215,41.54,1.247,44.819
					l-15.108-9.42c-0.011-0.011-0.021-0.011-0.032-0.011c-15.366-9.592-33.12-21.259-48.153-30.615
					c0.054,0.043,0.129,0.097,0.215,0.161c2.581,2.065,38.099,28.636,59.68,42.336c0.011,0,0.011,0,0.011,0c0.011,0,0.011,0,0.011,0
					c1.419,0.936,2.85,1.86,4.269,2.764c9.882,6.355,20.238,12.764,29.249,17.969c42.755,24.7,65.584,37.873,115.812,8.893
					c9.807-5.774,15.807-10.28,21.366-16.216c1.333-1.452,2.635-3.032,3.731-4.602c0.14-0.183,0.269-0.366,0.387-0.559
					c5.334-7.646,6.56-16.657,2.559-24.238c-0.118-0.258-0.258-0.505-0.398-0.753c-0.236-0.452-0.495-0.882-0.753-1.28
					c0,0,0,0-0.011-0.011c-0.151-0.258-0.312-0.495-0.473-0.72c-0.01-0.011-0.01-0.022-0.022-0.032
					c-0.763-1.194-2.591-3.247-3.043-3.602c1.011,0.742,2.022,1.548,2.979,2.301c0.817,0.656,1.635,1.333,2.366,1.979
					c0.269,0.236,0.516,0.462,0.742,0.677l0.505,0.505c0.065,0.054,0.118,0.118,0.172,0.172c1.333,1.409,2.505,2.903,3.527,4.473
					c0.107,0.172,0.204,0.333,0.301,0.495c0.075,0.097,0.129,0.194,0.194,0.29c3.548,5.785,5.247,12.592,5.613,20.227v0.011
					C441.475,340.752,441.432,367.388,441.411,369.238z"/>
				<g style="opacity:0.3;">
					<path d="M181.94,279.704c-2.101,20.477-3.667,41.167-1.393,61.693C176.822,321.039,178.401,299.981,181.94,279.704
						L181.94,279.704z"/>
				</g>
				<g style="opacity:0.3;">
					<path d="M211.695,297.205c-2.1,20.477-3.667,41.167-1.394,61.693C206.578,338.54,208.156,317.482,211.695,297.205
						L211.695,297.205z"/>
				</g>
				<path style="opacity:0.2;fill:#FFFFFF;" d="M282.317,256.289c-5.731-3.602-26.356-15.872-32.26-19.173l-8.871-4.914
					c-2.979-1.602-5.947-3.247-8.936-4.818c2.85,1.817,5.753,3.559,8.635,5.334l8.699,5.226
					C255.391,241.406,276.327,253.138,282.317,256.289z M302.404,244.697c-5.731-3.602-26.356-15.872-32.271-19.173l-8.871-4.925
					c-2.978-1.602-5.935-3.237-8.936-4.807c2.86,1.817,5.764,3.559,8.635,5.334l8.699,5.226
					C275.467,229.814,296.414,241.535,302.404,244.697z M267.251,264.988c-5.732-3.602-26.356-15.872-32.26-19.173l-8.871-4.925
					c-2.979-1.602-5.936-3.237-8.936-4.807c2.86,1.807,5.753,3.559,8.635,5.334l8.699,5.226
					C240.325,250.106,261.272,261.827,267.251,264.988z M317.458,236.008c-5.721-3.602-26.345-15.882-32.26-19.184l-8.871-4.914
					c-2.979-1.602-5.936-3.247-8.936-4.818c2.861,1.817,5.753,3.559,8.635,5.334l8.699,5.226
					C290.532,221.115,311.479,232.847,317.458,236.008z"/>
			</g>
			<g id="XMLID_1080_">
				<path id="XMLID_1084_" style="fill:#455A64;" d="M363.446,260.447L363.446,260.447l0.812,3.387
					c1.872,3.506,6.011,7.933,7.497,7.566c1.327-0.327,2.139-2.258,2.555-4.645v-0.03c0.198-1.089,0.307-2.278,0.346-3.456
					c0.129-3.754-1.545-12.509-6.754-14.836c-1.188-0.525-2.258-0.109-3.09,0.693c-0.693,0.673-1.228,1.604-1.505,2.486
					C362.436,254.248,363.327,260.309,363.446,260.447z"/>
				<path id="XMLID_1082_" style="fill:#37474F;" d="M364.258,263.835c1.872,3.506,6.011,7.933,7.497,7.566
					c1.327-0.327,2.139-2.258,2.555-4.645v-0.03c0.198-1.089,0.307-2.278,0.346-3.456c0.129-3.754-1.545-12.509-6.754-14.836
					c-1.188-0.525-2.258-0.109-3.09,0.693l0.713,1.614c3.644,1.555,4.625,7.18,4.288,11.459
					C369.487,266.479,366.348,266.043,364.258,263.835z"/>
				<path id="XMLID_1081_" style="fill:#263238;" d="M363.316,251.617c1.317-1.396,4.585-1.465,7.339,2.317
					c2.753,3.783,3.652,10.273,3.662,12.789c0.198-1.089,0.307-2.278,0.347-3.456c0.129-3.754-1.54-12.508-6.749-14.836
					C365.735,247.461,363.939,249.686,363.316,251.617z"/>
			</g>
			<g>
				<path style="fill:#BA68C8;" d="M272.118,348.58c3.189,2.015,6.004,3.801,7.104,4.499c0.313,0.198,0.502,0.533,0.519,0.902
					l0.16,3.518c0.025,0.557-0.585,0.915-1.059,0.619l-7.081-4.42c-0.315-0.197-0.514-0.536-0.533-0.907l-0.174-3.592
					C271.027,348.638,271.644,348.28,272.118,348.58z"/>
			</g>
			<g style="opacity:0.2;">
				<path style="fill:#FFFFFF;" d="M272.118,348.58c3.189,2.015,6.004,3.801,7.104,4.499c0.313,0.198,0.502,0.533,0.519,0.902
					l0.16,3.518c0.025,0.557-0.585,0.915-1.059,0.619l-7.081-4.42c-0.315-0.197-0.514-0.536-0.533-0.907l-0.174-3.592
					C271.027,348.638,271.644,348.28,272.118,348.58z"/>
			</g>
			<g>
				<path style="fill:#37474F;" d="M254.379,283.64l1.241,44.821l9.332,5.389c10.061,5.797,22.285,6.44,32.878,1.681
					c12.372-5.562,29.293-13.572,43.149-21.568c17.502-10.098,30.925-20.666,37.451-26.142c0.559-0.471,1.037-1.01,1.43-1.596
					c1.826-2.719,1.508-6.371-0.526-8.938c-11.865-14.973-18.192-25.877-40.35-45.622c8.046,6.946-15.908,20.79-32.643,30.443
					c-16.723,9.666-37.092,21.42-47.685,21.729C257.198,283.887,255.788,283.813,254.379,283.64z"/>
				<g>
					<path style="fill:#263238;" d="M264.952,333.85l-9.332-5.39l-68.916-43.509c0.018-6.488,3.669-27.394,5.941-33.397
						c0.011-0.011,0.011-0.021,0.011-0.021c10.173,5.871,18.635,10.764,30.862,17.818c13.872,8.011,22.076,13.216,30.862,14.291
						L264.952,333.85z"/>
					<g>
						<path d="M258.656,283.837c1.05-0.03,2.219-0.202,3.447-0.444c-0.671,2.42-2.672,4.034-0.478,13.25
							c8.318,34.949,8.389,39.429,12.701,40.972c-3.247-0.807-6.405-2.056-9.373-3.766l-10.573-50.21
							C255.788,283.813,257.198,283.887,258.656,283.837z"/>
						<path d="M215.64,303.219l-8.298-5.239l4.557-35.337c2.051,1.184,4.03,2.327,5.896,3.405L215.64,303.219z"/>
					</g>
				</g>
				<path style="fill:#455A64;" d="M338.938,239.07c7.904,4.99,9.361,12.035,17.101,20.721c8.987,10.085,12.982,19.39,0.521,11.595
					c-9.705-6.071-21.337-13.892-31.793-20.402C330.993,246.876,336.353,242.724,338.938,239.07z"/>
			</g>
			<g>
				<g>
					<path style="fill:#37474F;" d="M440.866,374.656c-0.505,0.527-1.065,1.086-1.667,1.667c-1.441,1.398-3.14,2.957-5.054,4.613
						c-0.28,0.247-0.57,0.505-0.871,0.763c-2.333,2-4.968,4.14-7.818,6.334c-0.71,0.548-1.441,1.108-2.183,1.667
						c-2.215,1.677-4.549,3.376-6.979,5.065c-0.85,0.591-1.72,1.194-2.602,1.785c-1.065,0.721-2.151,1.441-3.247,2.151
						c-1.086,0.721-2.194,1.419-3.312,2.118c-1.118,0.699-2.237,1.387-3.376,2.065c-1.129,0.677-2.269,1.344-3.419,2
						c-23.206,13.184-37.54,20.539-48.992,20.335c-0.527-0.011-1.054-0.022-1.602-0.032c-0.204-0.011-0.409-0.011-0.624-0.022
						c-1.194-0.032-2.462-0.097-3.796-0.215c-0.344-0.032-0.71-0.065-1.075-0.108c-0.258-0.032-0.516-0.065-0.785-0.097
						c-0.194-0.021-0.387-0.054-0.581-0.075c-0.333-0.054-0.677-0.097-1.021-0.161c-0.28-0.043-0.57-0.097-0.86-0.15
						c-0.29-0.054-0.57-0.108-0.86-0.172c-1.043-0.226-2.129-0.495-3.247-0.828c-0.323-0.086-0.656-0.193-0.979-0.301
						c-1.785-0.57-3.688-1.301-5.699-2.247c-0.258-0.118-0.516-0.247-0.775-0.376c-2.14-1.043-4.419-2.323-6.839-3.904
						c-0.452-0.29-0.914-0.602-1.376-0.914v13.076c13.753,9.366,23.001,9.463,30.12,9.603c11.452,0.226,25.786-7.14,48.992-20.334
						c17.409-9.882,33.615-23.055,40.551-30.26l0.075-0.075c2.269-2.376,3.484-5.592,3.484-8.893v-8.947
						C444.447,370.549,443.157,372.28,440.866,374.656z"/>
					<path style="fill:#455A64;" d="M321.226,415.613c13.757,9.369,23.002,9.456,30.122,9.604
						c11.445,0.21,25.783-7.144,48.995-20.332c23.101-13.139,44.101-32.025,44.101-35.103v-0.037c0-5.29-3.028-5.97-3.028-5.97v3.93
						c0,0-10.222,12.595-37.031,29.244c-27.724,17.218-40.344,23.719-54.372,23.719c-14.041,0-24.708-7.948-24.708-7.948
						L321.226,415.613z"/>
				</g>
				<path style="fill:#37474F;" d="M368.158,379.685l7.462,7.576c1.91,1.94,4.792,2.552,7.319,1.539
					c4.494-1.802,12.307-5.35,22.348-11.561c9.51-5.889,15.366-10.531,18.582-13.363c2.057-1.811,3.25-4.399,3.307-7.139l0.24-11.7
					c0.009-0.454-0.567-0.667-0.847-0.31c-4.505,5.75-11.606,12.044-22.407,18.733c-13.215,8.178-24.908,13.079-35.768,15.432
					C368.027,378.973,367.895,379.418,368.158,379.685z"/>
				<path style="fill:#E0E0E0;" d="M427.502,371.742c-0.255-0.229-0.642-0.216-0.87,0.039
					c-10.981,11.759-33.817,24.568-48.259,29.145c-0.319,0.096-0.502,0.447-0.394,0.777c0.084,0.266,0.337,0.43,0.605,0.422
					c0.054-0.002,0.107-0.004,0.171-0.027c14.59-4.624,37.669-17.571,48.775-29.474
					C427.759,372.368,427.746,371.982,427.502,371.742z M427.344,366.852c-0.255-0.228-0.642-0.216-0.871,0.028
					c-10.981,11.77-33.817,24.579-48.259,29.145c-0.319,0.107-0.502,0.457-0.394,0.777c0.084,0.277,0.337,0.441,0.606,0.432
					c0.054-0.002,0.107-0.014,0.171-0.027c14.59-4.624,37.669-17.571,48.775-29.484
					C427.601,367.478,427.588,367.091,427.344,366.852z"/>
				<g>
					<g>
						<g>
							<path style="fill:#BA68C8;" d="M366.358,382.589c-1.411-1.829-3.631-2.835-5.938-2.71c-7.974,0.433-21.038-0.208-29.39-3.093
								c-9.72-3.357-11.528-3.683-9.962,1.681c1.566,5.364,5.996,12.59,14.511,14.488c15.239,3.396,27.648,2.43,33.954-0.177
								C372.697,391.47,369.126,386.175,366.358,382.589z"/>
							<path style="opacity:0.8;fill:#FFFFFF;" d="M366.358,382.589c-1.411-1.829-3.631-2.835-5.938-2.71
								c-7.974,0.433-21.038-0.208-29.39-3.093c-9.72-3.357-11.528-3.683-9.962,1.681c1.566,5.364,5.996,12.59,14.511,14.488
								c15.239,3.396,27.648,2.43,33.954-0.177C372.697,391.47,369.126,386.175,366.358,382.589z"/>
							<path style="fill:#FFFFFF;" d="M335.579,392.954c-8.515-1.898-12.945-9.124-14.511-14.488
								c-1.476-5.054,0.051-5.054,8.364-2.229c3.039,6.535,7.242,12.531,13.193,16.482c0.984,0.653,2.007,1.256,2.989,1.91
								C342.443,394.278,339.091,393.736,335.579,392.954z"/>
						</g>
						<g>
							<path style="fill:#BA68C8;" d="M429.911,343.457c0.023-1.923,0.572-3.789,1.526-5.458c2.425-4.242,3.938-10.161,3.644-15.145
								c-0.35-5.944,2.22-4.776,3.622-2.439c1.402,2.337,4.977,10.822,2.709,18.929c-1.887,6.746-6.951,13.651-10.378,17.45
								c-0.609,0.675-1.725,0.223-1.669-0.684C429.56,352.923,429.864,347.433,429.911,343.457z"/>
							<path style="opacity:0.8;fill:#FFFFFF;" d="M429.911,343.457c0.023-1.923,0.572-3.789,1.526-5.458
								c2.425-4.242,3.938-10.161,3.644-15.145c-0.35-5.944,2.22-4.776,3.622-2.439c1.402,2.337,4.977,10.822,2.709,18.929
								c-1.887,6.746-6.951,13.651-10.378,17.45c-0.609,0.675-1.725,0.223-1.669-0.684
								C429.56,352.923,429.864,347.433,429.911,343.457z"/>
						</g>
					</g>
					<path style="fill:#F0F0F0;" d="M353.656,401.78c-5.839-1.505-14.947-2.645-18.463-0.312c-2.366,1.559,0.301,5.882,1.548,7.301
						c1.775,2.011,4.259,3.409,6.871,4c3.506,0.796,7.151,0.333,10.592-0.602C364.721,409.457,365.216,404.758,353.656,401.78z
						 M440.35,350.021c-0.054,0.054-0.118,0.108-0.172,0.172c-1.839,1.85-3.344,4.043-4.452,6.42
						c-0.989,2.108-1.505,4.226-1.484,6.57c0.011,0.624,0.054,1.269,0.377,1.806c0.678,1.14,2.043,0.677,3.033,0.237
						c0.495-0.215,0.968-0.516,1.409-0.849c0.398-0.28,0.763-0.581,1.118-0.893c0.441-0.376,0.85-0.785,1.237-1.204
						c2.011-2.148,2.186-13.431,0-13.248C441.06,349.311,440.716,349.666,440.35,350.021z"/>
				</g>
			</g>
			<g id="XMLID_00000003076655292555235170000008094888633335380411_">
				<path id="XMLID_392_" style="fill:#455A64;" d="M233.822,326.214c1.673,7.973,10.507,9.656,17.123,9.458
					c3.506-0.099,6.388-0.743,7.27-1.248c2.555-1.476,1.376-4.536,0.01-6.309c-2.317-3.001-12.716-9.022-19.243-9.23
					C235.158,318.757,232.653,320.618,233.822,326.214z"/>
				<path id="XMLID_00000034785515591890038090000013787013525836267418_" style="fill:#37474F;" d="M233.822,326.214
					c1.673,7.973,10.507,9.656,17.123,9.458c3.506-0.099,6.388-0.743,7.27-1.248c2.555-1.476,1.376-4.536,0.01-6.309
					c1.288,2.436-5.526,3.942-11.597,1.763c-6.071-2.189-10.597-6.873-7.646-10.993
					C235.158,318.757,232.653,320.618,233.822,326.214z"/>
				<path id="XMLID_385_" style="fill:#263238;" d="M233.822,326.214c1.673,7.973,10.507,9.656,17.123,9.458
					c-6.586-0.188-11.835-3.981-13.815-8.121c-1.971-4.13-0.476-8.141,1.852-8.666C235.158,318.757,232.653,320.618,233.822,326.214
					z"/>
			</g>
			<g>
				<polygon style="fill:#263238;" points="270.532,395.649 270.535,399.013 263.954,402.82 263.949,399.455 				"/>
				<g>
					<polygon style="fill:#37474F;" points="129.291,325.067 263.954,402.822 263.949,399.455 129.287,321.699 					"/>
					<polygon style="fill:#455A64;" points="135.894,317.908 129.287,321.699 263.949,399.455 270.532,395.649 					"/>
				</g>
			</g>
		</g>
	</g>
</g>
</svg>
